<svg xmlns="http://www.w3.org/2000/svg" xmlns:xlink="http://www.w3.org/1999/xlink" width="500" zoomAndPan="magnify" viewBox="0 0 375 374.999991" height="500" preserveAspectRatio="xMidYMid meet" version="1.0"><defs><clipPath id="id1"><path d="M 137.601562 192.835938 L 251.273438 192.835938 L 251.273438 196.816406 L 137.601562 196.816406 Z M 137.601562 192.835938 " clip-rule="nonzero"/></clipPath><clipPath id="id2"><path d="M 123.773438 130.820312 L 251 130.820312 L 251 196 L 123.773438 196 Z M 123.773438 130.820312 " clip-rule="nonzero"/></clipPath></defs><rect x="-37.5" width="450" fill="#ffffff" y="-37.499999" height="449.999989" fill-opacity="1"/><rect x="-37.5" width="450" fill="#ffffff" y="-37.499999" height="449.999989" fill-opacity="1"/><rect x="-37.5" width="450" fill="#fefefe" y="-37.499999" height="449.999989" fill-opacity="1"/><path fill="#7ed957" d="M 124.390625 150.183594 C 124.390625 150.183594 124.679688 152.921875 125.878906 153.613281 C 127.078125 154.296875 127.078125 155.128906 127.078125 155.128906 L 134.421875 152.511719 L 134.960938 186.90625 L 137.914062 188.746094 L 223.414062 186.804688 L 249.742188 185.769531 L 248.824219 170.058594 L 232.859375 159.171875 L 228.253906 141.859375 L 199.015625 131.792969 L 170.085938 140.0625 L 159.269531 139.363281 L 124.390625 150.183594 " fill-opacity="1" fill-rule="evenodd"/><path fill="#008037" d="M 199.585938 135.316406 L 200.703125 140.730469 C 200.703125 140.730469 220.589844 145.679688 222.003906 144.691406 C 223.414062 143.699219 222.003906 142.917969 222.003906 142.917969 L 199.585938 135.316406 " fill-opacity="1" fill-rule="evenodd"/><path fill="#008037" d="M 207.515625 156.933594 L 223.4375 159.847656 L 237.949219 169.121094 L 240.503906 186.308594 L 222.757812 186.359375 L 221.949219 168.386719 L 207.515625 156.933594 " fill-opacity="1" fill-rule="evenodd"/><path fill="#fefefe" d="M 224.78125 182.316406 L 224.523438 171.101562 L 230.054688 171.378906 L 230.3125 182.285156 Z M 245.621094 182.4375 L 245.390625 172.175781 L 249.261719 172.472656 L 249.621094 182.414062 L 245.621094 182.4375 " fill-opacity="1" fill-rule="evenodd"/><g clip-path="url(#id1)"><path fill="#141515" d="M 140.050781 194.101562 C 147.378906 194.007812 180.390625 193.578125 202.195312 193.085938 C 226.84375 192.53125 249.734375 193.511719 250.753906 193.960938 C 251.769531 194.402344 251.484375 195.664062 248.402344 195.703125 C 212.875 196.203125 176.261719 198 140.101562 195.582031 C 137.183594 195.386719 136.726562 194.140625 140.050781 194.101562 " fill-opacity="1" fill-rule="evenodd"/></g><path fill="#fefefe" d="M 171.921875 140.675781 L 172.859375 141.195312 L 196.300781 134.734375 L 201.257812 155.625 C 201.257812 155.625 219.953125 168.492188 220.621094 168.4375 C 221.292969 168.382812 221.160156 167.757812 221.160156 167.757812 L 203.617188 154.570312 L 198.449219 131.601562 L 171.921875 140.675781 " fill-opacity="1" fill-rule="evenodd"/><path fill="#fefefe" d="M 125.035156 151.714844 L 159.257812 141.496094 L 159.433594 139.835938 L 124.390625 150.183594 L 125.035156 151.714844 " fill-opacity="1" fill-rule="evenodd"/><g clip-path="url(#id2)"><path fill="#141515" d="M 133.042969 154.101562 L 133.972656 155.039062 L 133.972656 153.847656 Z M 135.453125 153.441406 L 135.453125 156.519531 L 137.859375 158.929688 L 137.859375 152.8125 Z M 165.371094 142.660156 L 178.253906 143.257812 L 178.394531 154.691406 Z M 232.414062 159.636719 L 222.589844 157.90625 C 222.589844 157.90625 220.347656 148.347656 220.085938 148.058594 C 219.859375 147.808594 221 155.675781 221.296875 157.683594 L 205.234375 154.855469 L 222.050781 167.394531 L 246.292969 169.246094 L 232.75 160.183594 C 232.601562 160.082031 232.496094 159.933594 232.453125 159.769531 Z M 201.1875 140.410156 L 229.109375 147.714844 L 228.90625 146.96875 C 228.386719 146.699219 227.582031 146.277344 227.132812 146.027344 C 226.425781 145.636719 203.589844 136.601562 203.433594 136.339844 C 203.292969 136.105469 223.949219 142.269531 227.933594 143.464844 L 227.648438 142.433594 L 199.457031 132.730469 Z M 225.128906 171.722656 L 225.359375 181.722656 L 229.710938 181.703125 L 229.476562 171.9375 Z M 224.195312 182.328125 L 223.9375 171.113281 C 223.929688 170.785156 224.1875 170.519531 224.511719 170.511719 C 224.527344 170.511719 224.539062 170.511719 224.554688 170.511719 L 230.078125 170.789062 C 230.398438 170.804688 230.648438 171.070312 230.640625 171.386719 L 230.90625 182.273438 C 230.914062 182.597656 230.65625 182.867188 230.328125 182.875 L 224.785156 182.902344 C 224.464844 182.902344 224.199219 182.644531 224.195312 182.328125 Z M 248.855469 181.828125 L 248.425781 173 L 245.996094 172.8125 L 246.199219 181.84375 Z M 249.023438 185.371094 L 248.910156 183.007812 L 245.625 183.023438 C 245.304688 183.023438 245.042969 182.765625 245.035156 182.449219 L 244.800781 172.1875 C 244.796875 171.863281 245.054688 171.597656 245.378906 171.589844 C 245.398438 171.589844 245.417969 171.589844 245.4375 171.589844 L 248.367188 171.8125 L 248.328125 170.882812 L 242.9375 170.472656 L 243.128906 180.953125 C 243.179688 181.949219 242.832031 182.984375 241.601562 182.878906 L 235.78125 182.878906 C 235.210938 182.878906 234.335938 182.867188 233.804688 182.484375 C 233.324219 182.140625 233.160156 181.457031 233.152344 180.898438 L 232.90625 169.703125 L 222.617188 168.917969 C 222.625 171.164062 222.652344 181.296875 222.511719 181.320312 C 222.371094 181.339844 221.5 170.863281 221.316406 168.6875 L 203.175781 155.160156 C 203.039062 155.058594 202.9375 154.914062 202.898438 154.734375 L 197.90625 132.546875 L 171.988281 140.777344 C 171.894531 140.816406 171.792969 140.832031 171.683594 140.828125 L 160.015625 140.144531 C 159.980469 140.90625 159.851562 141.664062 159.652344 142.394531 L 162.636719 142.535156 L 178.425781 157.121094 L 178.625 173.390625 L 137.832031 175.761719 L 137.859375 174.585938 L 137.859375 161.433594 L 135.453125 159.023438 L 135.453125 186.730469 L 137.929688 188.179688 L 147.382812 187.847656 C 147.355469 187.496094 147.335938 187.144531 147.335938 186.785156 C 147.335938 181.925781 150.382812 177.980469 154.140625 177.980469 C 157.902344 177.980469 160.949219 181.925781 160.949219 186.785156 C 160.949219 187.019531 160.941406 187.25 160.929688 187.480469 L 161.128906 187.464844 L 197.730469 186.59375 C 197.582031 185.796875 197.503906 184.964844 197.503906 184.105469 C 197.503906 178.195312 201.207031 173.402344 205.78125 173.402344 C 210.351562 173.402344 214.058594 178.195312 214.058594 184.105469 C 214.058594 184.753906 214.011719 185.386719 213.925781 186.003906 C 225.5 186.003906 237.285156 185.65625 249.023438 185.371094 Z M 182.578125 182.125 L 181.851562 146.183594 L 197.511719 141.703125 L 200.355469 154.234375 C 200.355469 154.234375 200.429688 171.03125 200.09375 170.898438 C 199.753906 170.769531 199.15625 154.570312 199.15625 154.570312 L 200.355469 154.234375 L 184.246094 158.710938 L 184.050781 161.425781 L 187.488281 160.574219 C 187.960938 160.453125 188.441406 160.746094 188.558594 161.21875 C 188.675781 161.695312 188.382812 162.171875 187.910156 162.289062 L 183.917969 163.277344 Z M 243.839844 189.042969 C 242.722656 192.46875 240.476562 194.808594 237.894531 194.808594 C 235.921875 194.808594 234.28125 194.808594 232.316406 194.808594 C 229.976562 194.808594 227.914062 192.894531 226.71875 189.992188 C 221.011719 190.28125 216.039062 190.539062 216.039062 190.539062 L 215.839844 190.542969 C 214.328125 193.136719 211.925781 194.808594 209.222656 194.808594 C 206.792969 194.808594 208.214844 194.808594 205.78125 194.808594 C 203.179688 194.808594 200.859375 193.257812 199.339844 190.832031 C 194.613281 190.910156 189.234375 191 183.691406 191.089844 C 182.527344 193.773438 180.304688 195.589844 177.753906 195.589844 C 175.753906 195.589844 176.917969 195.589844 174.917969 195.589844 C 172.4375 195.589844 170.269531 193.875 169.078125 191.3125 C 166.925781 191.34375 164.8125 191.375 162.773438 191.398438 C 161.574219 193.914062 159.425781 195.589844 156.976562 195.589844 C 154.976562 195.589844 156.140625 195.589844 154.140625 195.589844 C 151.746094 195.589844 149.636719 193.988281 148.421875 191.566406 C 143.527344 191.605469 140.371094 191.601562 140.144531 191.527344 C 139.417969 191.296875 137.753906 190.027344 136.632812 189.128906 L 134.398438 187.820312 C 134.148438 187.703125 133.972656 187.449219 133.972656 187.152344 L 133.972656 157.542969 L 131.332031 154.894531 C 131.253906 154.8125 131.191406 154.71875 131.148438 154.621094 L 127.257812 155.6875 C 127.132812 155.726562 126.996094 155.726562 126.867188 155.675781 C 125.960938 155.324219 125.230469 154.585938 124.710938 153.628906 C 124.1875 152.664062 123.871094 151.476562 123.800781 150.246094 C 123.773438 149.972656 123.941406 149.707031 124.210938 149.625 L 159.226562 138.636719 C 159.554688 138.527344 170.304688 139.269531 171.632812 139.347656 L 198.164062 130.917969 C 198.328125 130.851562 198.507812 130.84375 198.6875 130.90625 L 228.496094 141.164062 L 228.496094 141.167969 C 228.714844 141.242188 228.898438 141.421875 228.964844 141.667969 L 233.800781 159.113281 L 249.402344 169.558594 C 249.625 169.6875 249.773438 169.929688 249.769531 170.203125 L 250.496094 185.320312 C 250.535156 186.136719 245.511719 188.5 243.839844 189.042969 Z M 158.839844 139.992188 L 125.015625 150.605469 C 125.117188 151.511719 125.367188 152.367188 125.746094 153.0625 C 126.105469 153.722656 126.570312 154.234375 127.125 154.503906 C 136.699219 151.882812 146.269531 149.261719 155.859375 146.632812 C 156.726562 145.820312 157.550781 144.621094 158.113281 143.246094 C 158.535156 142.222656 158.804688 141.109375 158.839844 139.992188 " fill-opacity="1" fill-rule="nonzero"/></g><path fill="#fefefe" d="M 175.660156 166.863281 L 176.957031 166.722656 L 176.976562 171.4375 L 172.921875 171.707031 L 175.582031 167.140625 C 175.632812 167.054688 175.65625 166.957031 175.660156 166.863281 Z M 166.183594 167.875 L 174.292969 167.003906 L 171.5 171.800781 L 163.59375 172.328125 L 166.171875 167.894531 C 166.175781 167.886719 166.179688 167.878906 166.183594 167.875 Z M 157.648438 168.785156 L 164.730469 168.027344 L 162.171875 172.421875 L 155.265625 172.882812 Z M 150.097656 169.59375 L 156.195312 168.941406 L 153.839844 172.976562 L 147.894531 173.375 Z M 140.230469 173.886719 L 142.84375 170.371094 L 148.640625 169.75 L 146.472656 173.46875 Z M 141.925781 166.230469 L 141.925781 155.890625 L 157.5625 160.496094 L 157.5625 167.660156 L 153.257812 167.972656 L 141.925781 166.230469 " fill-opacity="1" fill-rule="evenodd"/><path fill="#7ed957" d="M 147.148438 155.109375 C 146.75 155.1875 146.359375 154.933594 146.277344 154.535156 C 146.199219 154.136719 146.453125 153.75 146.851562 153.667969 L 165.539062 149.832031 C 165.9375 149.75 166.324219 150.007812 166.410156 150.402344 C 166.488281 150.800781 166.234375 151.191406 165.832031 151.269531 L 147.148438 155.109375 " fill-opacity="1" fill-rule="nonzero"/><path fill="#7ed957" d="M 153.285156 156.953125 C 152.882812 157.039062 152.492188 156.78125 152.414062 156.382812 C 152.335938 155.984375 152.589844 155.59375 152.992188 155.515625 L 168.542969 152.320312 C 168.941406 152.238281 169.332031 152.496094 169.414062 152.894531 C 169.496094 153.289062 169.238281 153.679688 168.839844 153.761719 L 153.285156 156.953125 " fill-opacity="1" fill-rule="nonzero"/><path fill="#fefefe" d="M 154.140625 181.054688 C 156.210938 181.054688 157.890625 183.617188 157.890625 186.785156 C 157.890625 189.953125 156.210938 192.515625 154.140625 192.515625 C 152.074219 192.515625 150.398438 189.953125 150.398438 186.785156 C 150.398438 183.617188 152.074219 181.054688 154.140625 181.054688 Z M 205.78125 177.136719 C 208.292969 177.136719 210.332031 180.257812 210.332031 184.105469 C 210.332031 187.957031 208.292969 191.074219 205.78125 191.074219 C 203.265625 191.074219 201.226562 187.957031 201.226562 184.105469 C 201.226562 180.257812 203.265625 177.136719 205.78125 177.136719 " fill-opacity="1" fill-rule="evenodd"/><path fill="#fefefe" d="M 222.042969 151.136719 L 223.453125 156.785156 L 228.304688 157.761719 C 228.304688 157.761719 227.578125 156.183594 225.125 153.917969 C 222.667969 151.652344 222.042969 151.136719 222.042969 151.136719 Z M 202.753906 142.175781 L 205.261719 153.609375 L 220.242188 156.527344 C 220.242188 156.527344 213.902344 149.886719 209.542969 146.734375 C 205.183594 143.582031 202.753906 142.175781 202.753906 142.175781 " fill-opacity="1" fill-rule="evenodd"/><path fill="#818181" d="M 238.886719 180.613281 C 238.890625 180.859375 238.695312 181.0625 238.449219 181.0625 C 238.207031 181.066406 238.007812 180.871094 238.003906 180.628906 L 237.820312 171.015625 C 237.816406 170.773438 238.011719 170.574219 238.253906 170.570312 C 238.5 170.566406 238.703125 170.757812 238.707031 171.003906 Z M 236.003906 180.539062 C 236.011719 180.78125 235.8125 180.980469 235.570312 180.984375 C 235.324219 180.988281 235.125 180.796875 235.121094 180.550781 L 234.9375 170.941406 C 234.933594 170.699219 235.128906 170.5 235.371094 170.496094 C 235.613281 170.492188 235.816406 170.683594 235.820312 170.925781 Z M 241.445312 180.613281 C 241.449219 180.859375 241.257812 181.0625 241.011719 181.0625 C 240.765625 181.066406 240.566406 180.871094 240.5625 180.628906 L 240.378906 171.015625 C 240.375 170.773438 240.570312 170.574219 240.816406 170.570312 C 241.058594 170.566406 241.261719 170.757812 241.265625 171.003906 L 241.445312 180.613281 " fill-opacity="1" fill-rule="nonzero"/></svg>